<?xml version="1.0" standalone="no"?>
<!DOCTYPE svg PUBLIC "-//W3C//DTD SVG 20010904//EN"
 "http://www.w3.org/TR/2001/REC-SVG-20010904/DTD/svg10.dtd">
<svg version="1.0" xmlns="http://www.w3.org/2000/svg"
 width="700.000000pt" height="700.000000pt" viewBox="0 0 700.000000 700.000000"
 preserveAspectRatio="xMidYMid meet">
<metadata>
Created by potrace 1.11, written by Peter Selinger 2001-2013
</metadata>
<g transform="translate(0.000000,700.000000) scale(0.100000,-0.100000)"
fill="#000000" stroke="none">
<path d="M1434 5935 c-364 -54 -681 -215 -935 -476 -49 -50 -74 -68 -100 -72
-108 -15 -175 -83 -186 -189 -16 -149 130 -262 276 -213 109 36 169 167 126
276 -6 16 91 115 170 174 22 17 42 32 45 35 25 28 202 126 295 165 61 25 186
64 230 71 22 3 43 8 47 10 40 25 381 24 503 0 332 -67 623 -239 829 -489 l39
-47 124 0 c67 0 123 4 123 9 0 11 -108 158 -153 209 -321 359 -747 551 -1222
549 -71 0 -166 -6 -211 -12z"/>
<path d="M5148 5945 c-2 -2 -30 -6 -63 -10 -255 -28 -540 -145 -761 -311 -110
-83 -257 -233 -336 -345 l-67 -94 126 -3 126 -3 35 43 c53 63 171 180 217 213
22 17 42 32 45 35 14 15 123 82 185 113 83 42 134 63 195 83 25 8 59 19 75 24
91 29 264 49 400 45 77 -2 151 -6 165 -9 14 -3 52 -11 85 -17 230 -41 495
-180 684 -359 59 -55 71 -72 62 -83 -18 -22 -24 -98 -12 -145 23 -82 115 -152
201 -152 122 0 221 113 207 235 -11 84 -84 165 -164 179 -29 6 -53 23 -103 75
-210 215 -472 368 -758 441 -43 11 -94 22 -113 25 -19 2 -61 9 -94 14 -54 8
-329 13 -337 6z"/>
<path d="M2896 5028 c9 -15 35 -50 263 -353 96 -126 178 -234 183 -240 4 -5
84 -10 178 -10 l171 -1 222 296 c123 162 227 301 231 308 6 9 -23 12 -131 12
l-139 0 -59 -77 c-33 -43 -63 -82 -68 -88 -4 -5 -55 -72 -113 -147 -58 -76
-110 -138 -114 -138 -5 0 -29 26 -52 58 -24 31 -45 59 -48 62 -8 8 -124 160
-232 303 l-21 27 -139 0 c-109 0 -138 -3 -132 -12z"/>
<path d="M3478 4265 c-2 -2 -39 -6 -83 -9 -346 -24 -687 -171 -883 -381 -40
-43 -71 -82 -69 -88 1 -5 58 -51 126 -100 l123 -91 21 30 c38 55 164 169 234
210 112 67 257 120 379 140 20 3 46 8 58 10 26 6 275 6 284 0 4 -2 32 -7 62
-11 306 -38 628 -245 809 -519 99 -150 184 -383 206 -561 4 -27 8 -61 11 -75
6 -38 6 -228 -1 -290 -57 -515 -342 -914 -777 -1088 -275 -110 -604 -113 -898
-7 -153 54 -325 184 -417 311 -21 30 -41 54 -45 54 -4 0 -33 -17 -65 -38 -32
-21 -84 -55 -116 -76 l-58 -36 44 -58 c101 -130 209 -228 340 -307 411 -247
980 -265 1452 -45 71 32 221 120 257 149 217 175 342 326 448 541 218 445 221
1028 8 1466 -60 122 -155 270 -213 330 -11 12 -36 39 -56 60 -95 105 -255 224
-400 299 -84 43 -253 110 -301 119 -13 2 -42 9 -66 15 -24 7 -60 14 -80 17
-20 2 -48 7 -62 10 -14 2 -72 7 -130 10 -58 3 -113 7 -122 8 -9 2 -18 2 -20 1z"/>
<path d="M3400 3835 c-41 -7 -95 -18 -120 -25 -25 -7 -49 -13 -55 -15 -5 -1
-19 -6 -30 -10 -11 -5 -42 -17 -70 -27 -63 -25 -143 -69 -220 -124 -62 -44
-193 -170 -223 -216 -9 -14 -34 -51 -55 -83 -60 -91 -138 -282 -152 -373 -3
-20 -9 -62 -14 -92 -14 -84 -6 -324 13 -415 57 -270 190 -494 386 -649 151
-121 295 -184 525 -232 63 -13 320 -12 395 2 202 38 377 124 505 250 65 64
119 134 109 143 -20 18 -154 101 -162 101 -5 0 -23 -20 -40 -44 -95 -132 -283
-236 -477 -263 -61 -9 -203 -9 -267 0 -326 45 -595 274 -709 604 -49 144 -65
353 -39 518 53 342 283 623 595 726 55 18 59 19 160 33 180 25 334 2 487 -74
89 -44 156 -98 215 -174 l22 -27 90 66 c103 76 102 71 24 149 -110 111 -260
189 -453 236 -107 27 -331 34 -440 15z"/>
<path d="M3160 3132 c-43 -21 -80 -75 -80 -116 0 -74 69 -146 140 -146 70 0
140 72 140 145 0 63 -72 135 -135 135 -16 0 -46 -8 -65 -18z"/>
<path d="M3790 3133 c-101 -52 -105 -184 -8 -243 117 -71 259 71 188 187 -39
65 -117 89 -180 56z"/>
<path d="M3249 2583 c71 -191 162 -430 170 -448 6 -11 20 -49 32 -85 12 -36
26 -69 30 -74 11 -13 159 -13 169 -1 5 6 24 51 42 100 76 199 220 570 225 578
2 4 -38 7 -90 7 l-95 0 -78 -240 c-43 -132 -80 -240 -84 -240 -3 0 -40 108
-83 240 l-78 240 -94 0 -94 0 28 -77z"/>
</g>
</svg>
