<?xml version="1.0" encoding="UTF-8"?>
<svg width="56px" height="80px" viewBox="0 0 56 80" version="1.1" xmlns="http://www.w3.org/2000/svg" xmlns:xlink="http://www.w3.org/1999/xlink">
    <!-- Generator: Sketch 52.5 (67469) - http://www.bohemiancoding.com/sketch -->
    <title>cvrcek-zadok</title>
    <desc>Created with Sketch.</desc>
    <g id="cvrcek-zadok" stroke="none" stroke-width="1" fill="none" fill-rule="evenodd">
        <g id="Group" transform="translate(28.000000, 49.500000) rotate(-90.000000) translate(-28.000000, -49.500000) translate(8.000000, 26.000000)">
            <path d="M39.09,38.046 C38.3579963,39.1440055 37.4735052,40.1809951 36.4365,41.157 C35.3994948,42.1330049 34.1998401,42.9869963 32.8375,43.719 C31.4751599,44.4510037 29.9705082,45.0304979 28.3235,45.4575 C26.6764918,45.8845021 24.8770098,46.098 22.925,46.098 C19.6716504,46.098 16.6623472,45.5286724 13.897,44.39 C11.1316528,43.2513276 8.75267663,41.6755101 6.76,39.6625 C4.76732337,37.6494899 3.21183892,35.2603472 2.0935,32.495 C0.975161075,29.7296528 0.416,26.7000165 0.416,23.406 C0.416,20.1119835 0.98532764,17.0823472 2.124,14.317 C3.26267236,11.5516528 4.83848993,9.16251007 6.8515,7.1495 C8.86451006,5.13648994 11.2434863,3.56067236 13.9885,2.422 C16.7335137,1.28332764 19.7123173,0.714 22.925,0.714 C24.5110079,0.714 26.0664924,0.87666504 27.5915,1.202 C29.1165076,1.52733496 30.5499933,1.98483038 31.892,2.5745 C33.2340067,3.16416962 34.4539945,3.87582916 35.552,4.7095 C36.6500055,5.54317083 37.5649963,6.48866138 38.297,7.546 L34.637,10.23 C34.1896644,9.53866321 33.5898371,8.84733679 32.8375,8.156 C32.0851629,7.46466321 31.2006717,6.85466931 30.184,6.326 C29.1673282,5.79733069 28.0591727,5.37033496 26.8595,5.045 C25.6598273,4.71966504 24.3686736,4.557 22.986,4.557 C20.179986,4.557 17.6688444,5.06532825 15.4525,6.082 C13.2361556,7.09867175 11.3553411,8.47115803 9.81,10.1995 C8.26465894,11.927842 7.0853374,13.9306553 6.272,16.208 C5.4586626,18.4853447 5.052,20.8846541 5.052,23.406 C5.052,25.9273459 5.46882916,28.3266553 6.3025,30.604 C7.13617083,32.8813447 8.32565894,34.884158 9.871,36.6125 C11.4163411,38.340842 13.2971556,39.7133283 15.5135,40.73 C17.7298444,41.7466718 20.2206528,42.255 22.986,42.255 C25.4666791,42.255 27.8253221,41.7466718 30.062,40.73 C32.2986778,39.7133283 34.1693258,38.0866779 35.674,35.85 L39.09,38.046 Z" id="C" fill="#00B5AD" transform="translate(19.753000, 23.406000) scale(-1, 1) translate(-19.753000, -23.406000) "></path>
            <path d="M29.36,33.984 C28.8319974,34.776004 28.1940037,35.5239965 27.446,36.228 C26.6979963,36.9320035 25.8326716,37.5479974 24.85,38.076 C23.8673284,38.6040026 22.7820059,39.0219985 21.594,39.33 C20.4059941,39.6380015 19.108007,39.792 17.7,39.792 C15.3533216,39.792 13.1826766,39.3813374 11.188,38.56 C9.19332336,37.7386626 7.47734052,36.6020073 6.04,35.15 C4.60265948,33.6979927 3.4806707,31.9746766 2.674,29.98 C1.8673293,27.9853234 1.464,25.8000119 1.464,23.424 C1.464,21.0479881 1.87466256,18.8626766 2.696,16.868 C3.51733744,14.8733234 4.65399274,13.1500073 6.106,11.698 C7.55800726,10.2459927 9.2739901,9.10933744 11.254,8.288 C13.2340099,7.46666256 15.3826551,7.056 17.7,7.056 C18.8440057,7.056 19.9659945,7.17333216 21.066,7.408 C22.1660055,7.64266784 23.1999952,7.97266454 24.168,8.398 C25.1360048,8.82333546 26.015996,9.33666366 26.808,9.938 C27.600004,10.5393363 28.2599974,11.2213295 28.788,11.984 L26.148,13.92 C25.8253317,13.4213308 25.3926694,12.9226692 24.85,12.424 C24.3073306,11.9253308 23.669337,11.4853352 22.936,11.104 C22.202663,10.7226648 21.4033377,10.4146678 20.538,10.18 C19.6726623,9.94533216 18.7413383,9.828 17.744,9.828 C15.7199899,9.828 13.9086747,10.194663 12.31,10.928 C10.7113253,11.661337 9.35467224,12.6513271 8.24,13.898 C7.12532776,15.1446729 6.2746696,16.5893251 5.688,18.232 C5.1013304,19.8746749 4.808,21.6053242 4.808,23.424 C4.808,25.2426758 5.10866366,26.9733251 5.71,28.616 C6.31133634,30.2586749 7.16932776,31.7033271 8.284,32.95 C9.39867224,34.1966729 10.7553253,35.186663 12.354,35.92 C13.9526747,36.653337 15.7493234,37.02 17.744,37.02 C19.5333423,37.02 21.2346586,36.653337 22.848,35.92 C24.4613414,35.186663 25.8106612,34.0133414 26.896,32.4 L29.36,33.984 Z" id="C" fill="#F2711C"></path>
            <path d="M28.79,30.7 C27.9499958,31.8400057 26.8600067,32.7649964 25.52,33.475 C24.1799933,34.1850035 22.5700094,34.54 20.69,34.54 C19.0699919,34.54 17.5750069,34.2650028 16.205,33.715 C14.8349931,33.1649972 13.6550049,32.395005 12.665,31.405 C11.674995,30.4149951 10.9000028,29.2350069 10.34,27.865 C9.7799972,26.4949931 9.5,24.9900082 9.5,23.35 C9.5,21.6899917 9.78499715,20.1750069 10.355,18.805 C10.9250029,17.4349931 11.7149949,16.2650048 12.725,15.295 C13.735005,14.3249951 14.9299931,13.5700027 16.31,13.03 C17.6900069,12.4899973 19.1899919,12.22 20.81,12.22 C21.5300036,12.22 22.2599963,12.2899993 23,12.43 C23.7400037,12.5700007 24.4499966,12.7799986 25.13,13.06 C25.8100034,13.3400014 26.4299972,13.684998 26.99,14.095 C27.5500028,14.5050021 28.029998,14.9799973 28.43,15.52 L26.09,17.32 C25.5699974,16.5999964 24.8350047,16.0050023 23.885,15.535 C22.9349953,15.0649977 21.9100055,14.83 20.81,14.83 C19.5699938,14.83 18.4550049,15.0549978 17.465,15.505 C16.4749951,15.9550022 15.6300035,16.5699961 14.93,17.35 C14.2299965,18.1300039 13.6900019,19.0349949 13.31,20.065 C12.9299981,21.0950051 12.74,22.1899942 12.74,23.35 C12.74,24.550006 12.9249982,25.6699948 13.295,26.71 C13.6650018,27.7500052 14.1949965,28.6549962 14.885,29.425 C15.5750035,30.1950038 16.4149951,30.7999978 17.405,31.24 C18.395005,31.6800022 19.4999939,31.9 20.72,31.9 C21.920006,31.9 23.0099951,31.6600024 23.99,31.18 C24.9700049,30.6999976 25.7799968,30.0000046 26.42,29.08 L28.79,30.7 Z" id="C" fill="#B5CC18" transform="translate(19.145000, 23.380000) scale(-1, 1) translate(-19.145000, -23.380000) "></path>
        </g>
        <path d="M43,70 C41.9748725,72.4091874 40.9958431,74.4770699 40.0629119,76.2036477 C39.1299806,77.9302255 37.10901,78.4121682 34,77.6494757" id="Line-Copy" stroke="#212121" stroke-width="3" stroke-linecap="square" transform="translate(38.500000, 74.000000) scale(-1, 1) translate(-38.500000, -74.000000) "></path>
        <path d="M20,70 C18.9748725,72.4091874 17.9958431,74.4770699 17.0629119,76.2036477 C16.1299806,77.9302255 14.10901,78.4121682 11,77.6494757" id="Line-Copy-2" stroke="#212121" stroke-width="3" stroke-linecap="square"></path>
        <path d="M27,27 L27,35" id="Line" stroke="#FFFFFF" stroke-width="3" stroke-linecap="square"></path>
    </g>
</svg>