<?xml version="1.0" encoding="UTF-8"?>
<svg width="110px" height="90px" viewBox="0 0 110 90" version="1.1" xmlns="http://www.w3.org/2000/svg" xmlns:xlink="http://www.w3.org/1999/xlink">
    <!-- Generator: Sketch 52.5 (67469) - http://www.bohemiancoding.com/sketch -->
    <title>cvrcek-logo</title>
    <desc>Created with Sketch.</desc>
    <g id="cvrcek-logo" stroke="none" stroke-width="1" fill="none" fill-rule="evenodd">
        <path d="M77.674,71.434 C76.9419963,72.5320055 76.0575052,73.5689951 75.0205,74.545 C73.9834948,75.5210049 72.7838401,76.3749963 71.4215,77.107 C70.0591599,77.8390037 68.5545082,78.4184979 66.9075,78.8455 C65.2604918,79.2725021 63.4610098,79.486 61.509,79.486 C58.2556504,79.486 55.2463472,78.9166724 52.481,77.778 C49.7156528,76.6393276 47.3366766,75.0635101 45.344,73.0505 C43.3513234,71.0374899 41.7958389,68.6483472 40.6775,65.883 C39.5591611,63.1176528 39,60.0880165 39,56.794 C39,53.4999835 39.5693276,50.4703472 40.708,47.705 C41.8466724,44.9396528 43.4224899,42.5505101 45.4355,40.5375 C47.4485101,38.5244899 49.8274863,36.9486724 52.5725,35.81 C55.3175137,34.6713276 58.2963173,34.102 61.509,34.102 C63.0950079,34.102 64.6504924,34.264665 66.1755,34.59 C67.7005076,34.915335 69.1339933,35.3728304 70.476,35.9625 C71.8180067,36.5521696 73.0379945,37.2638292 74.136,38.0975 C75.2340055,38.9311708 76.1489963,39.8766614 76.881,40.934 L73.221,43.618 C72.7736644,42.9266632 72.1738371,42.2353368 71.4215,41.544 C70.6691629,40.8526632 69.7846718,40.2426693 68.768,39.714 C67.7513283,39.1853307 66.6431727,38.758335 65.4435,38.433 C64.2438273,38.107665 62.9526736,37.945 61.57,37.945 C58.763986,37.945 56.2528444,38.4533282 54.0365,39.47 C51.8201556,40.4866717 49.9393411,41.859158 48.394,43.5875 C46.8486589,45.315842 45.6693374,47.3186553 44.856,49.596 C44.0426626,51.8733447 43.636,54.2726541 43.636,56.794 C43.636,59.3153459 44.0528292,61.7146553 44.8865,63.992 C45.7201708,66.2693447 46.9096589,68.272158 48.455,70.0005 C50.0003411,71.728842 51.8811556,73.1013282 54.0975,74.118 C56.3138444,75.1346717 58.8046528,75.643 61.57,75.643 C64.0506791,75.643 66.4093222,75.1346717 68.646,74.118 C70.8826778,73.1013282 72.7533258,71.4746779 74.258,69.238 L77.674,71.434 Z M63.827,31.784 L58.947,31.784 L52.298,23 L56.324,23 L61.387,29.588 L66.45,23 L70.476,23 L63.827,31.784 Z" id="Č" fill="#F2711C" transform="translate(58.337000, 51.243000) scale(-1, 1) translate(-58.337000, -51.243000) "></path>
        <polygon id="V" fill="#B5CC18" points="57.146 66.912 54.752 66.912 51 57 53.688 57 55.984 64.028 56.04 64.028 58.322 57 60.968 57"></polygon>
        <path d="M67.896,66.928 C67.3679974,67.720004 66.7300037,68.4679965 65.982,69.172 C65.2339963,69.8760035 64.3686716,70.4919974 63.386,71.02 C62.4033284,71.5480026 61.3180059,71.9659985 60.13,72.274 C58.9419941,72.5820015 57.644007,72.736 56.236,72.736 C53.8893216,72.736 51.7186766,72.3253374 49.724,71.504 C47.7293234,70.6826626 46.0133405,69.5460073 44.576,68.094 C43.1386595,66.6419927 42.0166707,64.9186766 41.21,62.924 C40.4033293,60.9293234 40,58.7440119 40,56.368 C40,53.9919881 40.4106626,51.8066766 41.232,49.812 C42.0533374,47.8173234 43.1899927,46.0940073 44.642,44.642 C46.0940073,43.1899927 47.8099901,42.0533374 49.79,41.232 C51.7700099,40.4106626 53.9186551,40 56.236,40 C57.3800057,40 58.5019945,40.1173322 59.602,40.352 C60.7020055,40.5866678 61.7359952,40.9166645 62.704,41.342 C63.6720048,41.7673355 64.551996,42.2806637 65.344,42.882 C66.136004,43.4833363 66.7959974,44.1653295 67.324,44.928 L64.684,46.864 C64.3613317,46.3653308 63.9286694,45.8666692 63.386,45.368 C62.8433306,44.8693308 62.205337,44.4293352 61.472,44.048 C60.738663,43.6666648 59.9393377,43.3586678 59.074,43.124 C58.2086623,42.8893322 57.2773383,42.772 56.28,42.772 C54.2559899,42.772 52.4446747,43.138663 50.846,43.872 C49.2473253,44.605337 47.8906722,45.5953271 46.776,46.842 C45.6613278,48.0886729 44.8106696,49.5333251 44.224,51.176 C43.6373304,52.8186749 43.344,54.5493242 43.344,56.368 C43.344,58.1866758 43.6446637,59.9173251 44.246,61.56 C44.8473363,63.2026749 45.7053278,64.6473271 46.82,65.894 C47.9346722,67.1406729 49.2913253,68.130663 50.89,68.864 C52.4886747,69.597337 54.2853234,69.964 56.28,69.964 C58.0693423,69.964 59.7706586,69.597337 61.384,68.864 C62.9973414,68.130663 64.3466612,66.9573414 65.432,65.344 L67.896,66.928 Z" id="C" fill="#00B5AD"></path>
        <g id="Group-3" transform="translate(49.000000, 50.000000)" fill="#212121">
            <circle id="Oval" cx="2" cy="2" r="2"></circle>
            <circle id="Oval-Copy" cx="11" cy="2" r="2"></circle>
        </g>
        <g id="Group-2" transform="translate(8.000000, 10.000000)" fill="#212121">
            <circle id="Oval-Copy-3" cx="3" cy="11" r="3"></circle>
            <path d="M36.6267223,10.9999908 C32.9778965,6.14220923 27.1685316,3 20.6252644,3 C14.0819935,3 8.27262574,6.14221279 4.62380038,10.9999991 L1,11 L1.0000062,10.9999899 C5.04304712,4.40195354 12.3200901,0 20.6252644,0 C28.9304387,0 36.2074817,4.40195354 40.2505227,10.9999899 L36.6267223,10.9999908 Z" id="Combined-Shape"></path>
        </g>
        <g id="Group" transform="translate(61.000000, 10.000000)" fill="#212121">
            <circle id="Oval-Copy-4" cx="37" cy="11" r="3"></circle>
            <path d="M35.6267223,10.9999908 C31.9778965,6.14220923 26.1685316,3 19.6252644,3 C13.0819935,3 7.27262574,6.14221279 3.62380038,10.9999991 L-5.19584376e-14,11 L6.19795623e-06,10.9999899 C4.04304712,4.40195354 11.3200901,0 19.6252644,0 C27.9304387,0 35.2074817,4.40195354 39.2505227,10.9999899 L35.6267223,10.9999908 Z" id="Combined-Shape-Copy"></path>
        </g>
    </g>
</svg>