<?xml version="1.0" encoding="UTF-8" standalone="no"?>
<svg width="100%" height="100%" viewBox="0 0 457 457" version="1.1" xmlns="http://www.w3.org/2000/svg" xmlns:xlink="http://www.w3.org/1999/xlink" xml:space="preserve" xmlns:serif="http://www.serif.com/" style="fill-rule:evenodd;clip-rule:evenodd;stroke-linejoin:round;stroke-miterlimit:2;">
    <g>
        <path d="M379.893,168C379.893,126.666 339.226,0 275.893,0C241.893,0 227.893,8 227.893,8C227.893,8 213.893,0 179.893,0C116.559,0 75.893,126.667 75.893,168C75.893,204 95.893,219.333 99.893,232C105.298,249.117 99.893,272 99.893,272C133.893,299 195.893,304 195.893,304L259.893,304C259.893,304 321.893,299 355.893,272C355.893,272 350.488,249.117 355.893,232C359.893,219.333 379.893,204 379.893,168Z" style="fill:rgb(215,137,70);fill-rule:nonzero;"/>
        <path d="M75.892,168C75.892,204 95.892,219.333 99.892,232C105.297,249.117 99.892,272 99.892,272C133.892,299 195.892,304 195.892,304L213.601,292.932C213.275,254.344 211.893,208 211.893,208L115.893,136C115.893,136 289.893,79.333 227.893,8C227.893,8 213.893,0 179.893,0C116.559,0 75.892,126.667 75.892,168Z" style="fill:rgb(193,117,63);fill-rule:nonzero;"/>
        <path d="M387.863,414.878L387.137,408.342C386.85,405.756 384.521,403.893 381.936,404.181L381.529,404.226L374.502,348.012C372.973,335.784 364.559,325.52 352.868,321.623L313.821,308.607C308.446,306.815 302.548,307.963 298.412,311.507L286.833,307.647C280.299,305.469 275.893,299.355 275.893,292.468L275.893,266.666L310.354,252.307C328.241,244.854 339.893,227.377 339.893,207.999L339.893,199.999C353.148,199.999 363.893,189.254 363.893,175.999C363.893,162.744 353.148,151.999 339.893,151.999L339.893,135.999C339.893,113.907 321.984,95.999 299.893,95.999L155.893,95.999C133.801,95.999 115.893,113.908 115.893,135.999L115.893,151.999C102.638,151.999 91.893,162.744 91.893,175.999C91.893,189.254 102.638,199.999 115.893,199.999L115.893,207.999C115.893,227.377 127.544,244.854 145.431,252.307L179.893,266.666L179.893,292.467C179.893,299.354 175.486,305.468 168.953,307.646L157.528,311.454C153.395,307.951 147.529,306.823 142.18,308.606L103.133,321.622C91.442,325.519 83.028,335.783 81.499,348.011L74.472,404.225L74.065,404.18C71.479,403.893 69.151,405.756 68.863,408.341L68.137,414.877C67.85,417.462 69.713,419.791 72.298,420.078L84,421.378L84,440C84,448.837 91.164,456 100,456L356,456C364.837,456 372,448.837 372,440L372,421.379L383.702,420.079C386.287,419.792 388.15,417.463 387.863,414.878Z" style="fill:rgb(246,180,123);fill-rule:nonzero;"/>
        <path d="M179.893,266.667L179.893,292.468C179.893,298.161 176.876,303.32 172.141,306.169C239.064,317.732 275.891,266.67 275.893,266.666L179.893,266.667Z" style="fill:rgb(226,160,113);fill-rule:nonzero;"/>
        <path d="M339.893,152L339.893,136C339.893,113.908 321.984,96 299.893,96L155.893,96C133.801,96 115.893,113.909 115.893,136L115.893,152C102.638,152 91.893,162.745 91.893,176C91.893,189.255 102.638,200 115.893,200L115.893,208C115.893,227.378 127.544,244.855 145.431,252.308L197.122,273.846C206.872,277.909 217.33,280 227.892,280C238.454,280 248.911,277.909 258.661,273.846L310.355,252.307C328.242,244.854 339.894,227.377 339.894,207.999L339.894,199.999C353.149,199.999 363.894,189.254 363.894,175.999C363.893,162.745 353.147,152 339.893,152Z" style="fill:rgb(253,200,142);fill-rule:nonzero;"/>
        <path d="M171.893,184C167.493,184 163.893,180.4 163.893,176L163.893,168C163.893,163.6 167.493,160 171.893,160C176.293,160 179.893,163.6 179.893,168L179.893,176C179.893,180.4 176.293,184 171.893,184Z" style="fill:rgb(98,63,51);fill-rule:nonzero;"/>
        <path d="M283.892,184C279.492,184 275.892,180.4 275.892,176L275.892,168C275.892,163.6 279.492,160 283.892,160C288.292,160 291.892,163.6 291.892,168L291.892,176C291.892,180.4 288.292,184 283.892,184Z" style="fill:rgb(98,63,51);fill-rule:nonzero;"/>
        <path d="M227.893,240.219C213.67,240.219 200.366,236.719 191.393,230.614C187.741,228.13 186.792,223.153 189.28,219.501C191.76,215.853 196.741,214.903 200.393,217.388C206.682,221.665 216.963,224.22 227.893,224.22C238.823,224.22 249.104,221.665 255.393,217.388C259.053,214.896 264.022,215.849 266.506,219.501C268.994,223.153 268.045,228.13 264.393,230.614C255.421,236.719 242.116,240.219 227.893,240.219Z" style="fill:rgb(226,160,113);fill-rule:nonzero;"/>
        <path d="M247.893,90C195.56,111.833 115.893,136 115.893,136L115.893,152C102.638,152 91.893,162.745 91.893,176C91.893,189.255 102.638,200 115.893,200L115.893,208C115.893,227.378 127.544,244.855 145.431,252.308L197.121,273.846C199.651,274.9 202.233,275.808 204.848,276.595C182.092,259.948 166.915,245.388 157.991,235.834C151.477,228.86 147.892,219.648 147.892,210.105L147.892,149.911C248.392,116.251 259.892,96.001 259.892,96.001L247.893,90Z" style="fill:rgb(246,180,123);fill-rule:nonzero;"/>
        <path d="M316,456.001L316,416.001L383,416.001L374.501,348.012C372.972,335.784 364.558,325.52 352.867,321.623L313.82,308.607C307.02,306.34 299.37,308.761 295.529,314.813C281.349,337.157 256.424,352 228.001,352C199.578,352 174.652,337.156 160.471,314.812C156.63,308.76 148.98,306.339 142.18,308.606L103.133,321.622C91.442,325.519 83.028,335.783 81.499,348.011L73.89,408.883L140.001,416L140.001,456L316.001,456L316.001,456.001L316,456.001Z" style="fill:rgb(189,223,166);fill-rule:nonzero;"/>
        <path d="M140.001,422.04L140.001,403.934C140.001,396.237 137.227,388.799 132.188,382.981L88.169,332.168C84.617,336.665 82.239,342.098 81.5,348.011L73.144,414.858C85.867,415.622 119.711,419.587 140.001,422.04Z" style="fill:rgb(160,187,147);fill-opacity:0.55;fill-rule:nonzero;"/>
        <path d="M140.001,411.507L74.065,404.181C71.479,403.894 69.151,405.757 68.863,408.342L68.137,414.878C67.85,417.463 69.713,419.792 72.298,420.079L140.001,427.602L140.001,411.507Z" style="fill:rgb(145,196,145);fill-rule:nonzero;"/>
        <path d="M316,422.04L316,403.934C316,396.237 318.774,388.799 323.813,382.981L367.832,332.168C371.384,336.665 373.762,342.098 374.501,348.011L382.857,414.858C370.134,415.622 336.289,419.587 316,422.04Z" style="fill:rgb(160,187,147);fill-opacity:0.55;fill-rule:nonzero;"/>
        <path d="M316,411.507L381.936,404.181C384.522,403.894 386.85,405.757 387.138,408.342L387.864,414.878C388.151,417.463 386.288,419.792 383.703,420.079L316,427.602L316,411.507Z" style="fill:rgb(145,196,145);fill-rule:nonzero;"/>
        <path d="M227.999,408C201.489,408 179.999,429.49 179.999,456L275.999,456C275.999,429.491 254.51,408 227.999,408Z" style="fill:rgb(145,196,145);fill-rule:nonzero;"/>
        <path d="M110.892,112.671L110.892,136C127.606,136 197.946,124 244.606,96C244.606,96 284.999,148.667 344.892,152L344.892,111.332C344.892,90.768 327.376,74.15 305.895,74.334L149.198,75.673C127.988,75.854 110.892,92.365 110.892,112.671Z" style="fill:rgb(211,136,70);fill-rule:nonzero;"/>
        <path d="M149.2,75.673C127.989,75.854 110.893,92.366 110.893,112.671L110.893,136C112.433,136 114.431,135.897 116.821,135.69C125.452,132.777 192.552,109.359 224.476,75.029L149.2,75.673Z" style="fill:rgb(193,117,62);fill-rule:nonzero;"/>
    </g>
</svg>
