<?xml version="1.0" encoding="UTF-8" standalone="no"?>
<!DOCTYPE svg PUBLIC "-//W3C//DTD SVG 1.1//EN" "http://www.w3.org/Graphics/SVG/1.1/DTD/svg11.dtd">
<svg width="100%" height="100%" viewBox="0 0 465 465" version="1.1" xmlns="http://www.w3.org/2000/svg" xmlns:xlink="http://www.w3.org/1999/xlink" xml:space="preserve" xmlns:serif="http://www.serif.com/" style="fill-rule:evenodd;clip-rule:evenodd;stroke-linejoin:round;stroke-miterlimit:2;">
    <g>
        <path d="M415.971,422.878L415.245,416.342C414.958,413.756 412.629,411.893 410.043,412.18L409.636,412.225L402.609,356.011C401.08,343.783 392.666,333.519 380.975,329.622L341.928,316.606C336.566,314.818 330.684,315.957 326.549,319.48L315.047,315.646C308.513,313.468 304.107,307.354 304.107,300.467L304.107,274.665L338.568,260.306C356.455,252.853 368.107,235.376 368.107,215.998L368.107,207.998C381.362,207.998 392.107,197.253 392.107,183.998C392.107,170.743 381.362,159.998 368.107,159.998L368.107,127.998C368.107,105.907 350.198,87.998 328.107,87.998L184.107,87.998C162.016,87.998 144.107,105.907 144.107,127.998L144.107,159.998C130.852,159.998 120.107,170.743 120.107,183.998C120.107,197.253 130.852,207.998 144.107,207.998L144.107,215.998C144.107,235.375 155.758,252.852 173.645,260.306L208.107,274.665L208.107,300.466C208.107,307.353 203.7,313.467 197.167,315.645L185.665,319.479C181.53,315.956 175.648,314.817 170.286,316.605L131.239,329.621C119.548,333.518 111.134,343.782 109.605,356.01L102.578,412.224L102.171,412.179C99.585,411.892 97.257,413.755 96.969,416.341L96.243,422.877C95.956,425.462 97.819,427.791 100.404,428.078L112.106,429.378L112.106,447.999C112.106,456.835 119.269,463.999 128.106,463.999L384.106,463.999C392.943,463.999 400.106,456.835 400.106,447.999L400.106,429.378L411.808,428.078C414.395,427.792 416.258,425.463 415.971,422.878Z" style="fill:rgb(253,200,142);fill-rule:nonzero;"/>
        <path d="M208.108,300.468C208.108,306.161 205.091,311.32 200.355,314.169C267.281,325.732 304.108,274.666 304.108,274.666L208.108,274.667L208.108,300.468Z" style="fill:rgb(228,176,123);fill-rule:nonzero;"/>
        <g>
            <path d="M146,112L55.629,119.364C51.317,119.723 48,123.328 48,127.655L48,127.679C48,132.274 51.725,135.999 56.32,135.999L146,135.999L146,112Z" style="fill:rgb(103,53,24);fill-rule:nonzero;"/>
        </g>
        <g>
            <path d="M344.108,464.001L344.108,424.001L411.108,424.001L402.609,356.012C401.08,343.784 392.666,333.52 380.975,329.623L341.928,316.607C335.128,314.34 327.478,316.761 323.637,322.813C309.457,345.157 284.531,360 256.108,360C227.685,360 202.759,345.156 188.578,322.812C184.737,316.76 177.087,314.339 170.287,316.606L131.24,329.622C119.549,333.519 111.135,343.783 109.606,356.011L101.997,416.883L168.107,424L168.107,464L344.108,464.001Z" style="fill:rgb(51,97,63);fill-rule:nonzero;"/>
        </g>
        <path d="M368.108,160L368.108,128C368.108,105.909 350.199,88 328.108,88L184.108,88C162.017,88 144.108,105.909 144.108,128L144.108,160.003C144.072,160.003 144.036,160 144,160C130.745,160 120,170.745 120,184C120,197.255 130.745,208 144,208C144.036,208 144.072,207.997 144.108,207.997L144.108,216C144.108,235.377 155.759,252.854 173.646,260.308L225.337,281.846C235.087,285.909 245.544,288 256.107,288C266.669,288 277.126,285.909 286.876,281.846L338.57,260.307C356.457,252.854 368.109,235.377 368.109,215.999L368.109,207.999C381.364,207.999 392.109,197.254 392.109,183.999C392.108,170.745 381.363,160 368.108,160Z" style="fill:rgb(255,215,163);fill-rule:nonzero;"/>
        <path d="M186.103,243.723C179.621,236.773 176.108,227.602 176.108,218.098L176.108,129.001L144.108,129.001L144.108,160.001C130.853,160.001 120.108,170.746 120.108,184.001C120.108,197.256 130.853,208.001 144.108,208.001L144.108,216.001C144.108,235.379 155.759,252.856 173.646,260.309L225.336,281.847C227.866,282.901 230.448,283.809 233.063,284.596C210.219,267.883 195.013,253.275 186.103,243.723Z" style="fill:rgb(253,200,142);fill-rule:nonzero;"/>
        <g>
            <path d="M200.108,192C195.708,192 192.108,188.4 192.108,184L192.108,176C192.108,171.6 195.708,168 200.108,168C204.508,168 208.108,171.6 208.108,176L208.108,184C208.108,188.4 204.508,192 200.108,192Z" style="fill:rgb(98,63,51);fill-rule:nonzero;"/>
        </g>
        <g>
            <path d="M312.108,192C307.708,192 304.108,188.4 304.108,184L304.108,176C304.108,171.6 307.708,168 312.108,168C316.508,168 320.108,171.6 320.108,176L320.108,184C320.108,188.4 316.508,192 312.108,192Z" style="fill:rgb(98,63,51);fill-rule:nonzero;"/>
        </g>
        <g>
            <g>
                <path d="M256.108,248.219C241.885,248.219 228.581,244.719 219.608,238.614C215.956,236.13 215.006,231.153 217.495,227.501C219.975,223.853 224.956,222.903 228.608,225.388C234.897,229.665 245.178,232.22 256.108,232.22C267.038,232.22 277.319,229.665 283.608,225.388C287.268,222.896 292.237,223.849 294.721,227.501C297.209,231.153 296.26,236.13 292.608,238.614C283.635,244.719 270.331,248.219 256.108,248.219Z" style="fill:rgb(228,176,123);fill-rule:nonzero;"/>
            </g>
        </g>
        <g>
            <path d="M168.108,430.04L168.108,411.934C168.108,404.237 165.334,396.799 160.295,390.981L116.276,340.168C112.724,344.665 110.346,350.098 109.607,356.011L101.251,422.858C113.975,423.622 147.819,427.587 168.108,430.04Z" style="fill:rgb(44,124,60);fill-rule:nonzero;"/>
        </g>
        <g>
            <path d="M168.108,419.507L102.172,412.181C99.586,411.894 97.258,413.757 96.97,416.342L96.244,422.878C95.957,425.463 97.82,427.792 100.405,428.079L168.107,435.601L168.108,419.507Z" style="fill:rgb(103,53,24);fill-rule:nonzero;"/>
        </g>
        <g>
            <path d="M344.108,430.04L344.108,411.934C344.108,404.237 346.882,396.799 351.921,390.981L395.94,340.168C399.492,344.665 401.87,350.098 402.609,356.011L410.965,422.858C398.241,423.622 364.397,427.587 344.108,430.04Z" style="fill:rgb(44,124,60);fill-rule:nonzero;"/>
        </g>
        <g>
            <path d="M344.108,419.507L410.044,412.181C412.63,411.894 414.958,413.757 415.246,416.342L415.972,422.878C416.259,425.463 414.396,427.792 411.811,428.079L344.109,435.601L344.109,419.507L344.108,419.507Z" style="fill:rgb(103,53,24);fill-rule:nonzero;"/>
        </g>
        <g>
            <path d="M349.398,36.553L271.458,3.15C266.609,1.072 261.387,0 256.111,0L256.105,0C250.829,0 245.607,1.072 240.758,3.15L162.818,36.553C146.891,43.379 137.17,59.684 138.739,76.941L144.108,136.001L280.108,136.001C284.526,136.001 288.108,132.419 288.108,128.001L288.108,104.001C288.108,99.583 291.69,96.001 296.108,96.001L344.108,96.001C348.526,96.001 352.108,99.583 352.108,104.001L352.108,128.001C352.108,132.419 355.69,136.001 360.108,136.001L368.108,136.001L373.477,76.941C375.046,59.683 365.325,43.379 349.398,36.553Z" style="fill:rgb(44,124,60);fill-rule:nonzero;"/>
        </g>
        <g>
            <path d="M256.108,0L256.105,0C250.829,0 245.607,1.072 240.758,3.15L162.818,36.553C146.891,43.379 137.17,59.683 138.739,76.94L144.108,136L208.108,136L208.108,67.882C208.108,55.152 213.165,42.943 222.167,33.941L256.108,0Z" style="fill:rgb(51,97,63);fill-rule:nonzero;"/>
        </g>
        <g>
            <rect x="288.108" y="112" width="64" height="16" style="fill:rgb(103,53,24);"/>
        </g>
    </g>
</svg>
